<svg xmlns="http://www.w3.org/2000/svg" xmlns:xlink="http://www.w3.org/1999/xlink" transform="rotate(0) scale(1, 1)" viewBox="422.69 62.05 634.46 621.47">
	<path fill="#da26ff" d="M991.906 683.394C966.894 683.783 943.364 676.123 928.906 654.562C924.392 647.83 920.59 639.561 914.293 634.261C902.292 624.158 877.755 627.681 863.244 627.625C851.564 627.58 839.811 627.136 828.15 627.959C808.523 629.346 803.356 647.844 792.196 660.576Q791.077 661.842 789.896 663.051Q788.715 664.259 787.475 665.407Q786.236 666.556 784.94 667.641Q783.645 668.725 782.297 669.744Q780.949 670.763 779.552 671.714Q778.155 672.664 776.712 673.544Q775.269 674.424 773.784 675.23Q772.299 676.037 770.776 676.768Q769.253 677.5 767.695 678.154Q766.137 678.809 764.549 679.385Q762.96 679.961 761.345 680.457Q759.73 680.953 758.092 681.368Q756.454 681.783 754.797 682.116Q753.14 682.449 751.469 682.698Q749.798 682.948 748.116 683.114Q746.435 683.28 744.747 683.362C721.733 684.625 696.633 674.646 683.189 655.343C678.134 648.085 674.372 639.287 667.538 633.477C664.766 631.12 662.203 629.97 658.691 629.113C644.636 625.681 601.068 626.369 585.881 627.97C560.456 630.649 562.214 641.896 548.347 658.666C536.553 672.928 519.122 681.458 500.797 683.188Q499.05 683.356 497.296 683.438Q495.542 683.52 493.787 683.515Q492.031 683.51 490.278 683.419Q488.525 683.327 486.779 683.149Q485.032 682.97 483.297 682.706Q481.561 682.441 479.841 682.091Q478.121 681.741 476.42 681.307Q474.719 680.872 473.042 680.354Q471.364 679.836 469.715 679.235Q468.065 678.635 466.447 677.953Q464.829 677.272 463.247 676.512Q461.665 675.751 460.122 674.913Q458.579 674.076 457.08 673.162Q455.58 672.249 454.128 671.263Q452.676 670.277 451.274 669.221Q449.872 668.164 448.524 667.039Q447.169 665.907 445.871 664.709Q444.573 663.511 443.336 662.252Q442.098 660.991 440.924 659.672Q439.751 658.353 438.643 656.977Q437.536 655.602 436.497 654.173Q435.459 652.745 434.492 651.267Q433.525 649.79 432.631 648.266Q431.738 646.743 430.921 645.177Q430.104 643.612 429.365 642.008Q428.626 640.404 427.967 638.766Q427.308 637.127 426.73 635.458Q426.152 633.79 425.657 632.095Q425.162 630.399 424.751 628.682Q424.34 626.964 424.014 625.229Q423.687 623.493 423.447 621.744Q423.207 619.994 423.053 618.235C421.14 596.29 430.099 570.863 448.324 557.568C456.168 551.846 465.993 547.733 472.203 540.07C474.808 536.855 476.477 533.084 477.321 529.044C480.266 514.951 479.821 475.799 478.058 460.811C475.605 439.959 462.341 439.464 448.547 428.22C434.245 416.563 424.941 398.172 423.056 379.934C420.567 355.857 430.861 330.819 450.696 316.577C458.283 311.13 467.856 306.746 473.622 299.225C476.187 295.88 477.184 292.418 477.814 288.316C479.391 278.047 478.171 267.279 478.305 256.892C478.455 245.201 480.034 233.494 478.423 221.832C475.753 202.509 462.257 198.827 448.66 188.31C434.207 177.131 425.67 160.754 423.424 142.721Q423.196 140.931 423.058 139.132Q422.92 137.333 422.872 135.529Q422.823 133.725 422.865 131.921Q422.907 130.117 423.038 128.317Q423.17 126.517 423.391 124.727Q423.612 122.936 423.923 121.158Q424.233 119.381 424.632 117.621Q425.03 115.861 425.516 114.123Q426.002 112.385 426.574 110.673Q427.146 108.962 427.802 107.281Q428.459 105.6 429.198 103.954Q429.938 102.308 430.759 100.701Q431.579 99.0944 432.479 97.5303Q433.379 95.9661 434.356 94.4489Q435.333 92.9316 436.384 91.4649Q437.435 89.9982 438.558 88.5858C450.839 73.1348 468.677 64.688 488.045 62.4228C488.272 62.3858 488.498 62.3321 488.727 62.3117C512.677 60.1763 537.762 71.1304 551.439 91.1383C556.569 98.6415 560.586 108.214 568.201 113.563C572.499 116.581 579.014 117.35 584.168 117.833C594.722 118.823 605.483 117.619 616.065 117.526C628.564 117.415 642.719 119.559 654.96 117.135C669.54 114.248 675.738 101.257 683.608 90.3113C694.182 75.6041 709.503 65.9547 727.425 63.1211C753.54 58.9919 780.457 68.2493 796.204 89.9159C801.803 97.6193 806.235 107.578 814.267 113.131C817.818 115.585 821.664 116.705 825.884 117.409C838.612 119.53 888.088 119.607 900.515 117.248C916.407 114.23 921.739 100.899 930.216 89.1012C940.444 74.8665 956.042 65.8544 973.278 63.1778C992.659 60.1681 1012.48 64.3368 1028.27 76.1396Q1029.69 77.1877 1031.05 78.3046Q1032.41 79.4215 1033.72 80.6045Q1035.03 81.7874 1036.27 83.0336Q1037.52 84.2797 1038.7 85.5859Q1039.89 86.8922 1041.01 88.2554Q1042.12 89.6185 1043.17 91.0353Q1044.22 92.4521 1045.2 93.9189Q1046.17 95.3858 1047.08 96.8993Q1047.98 98.4127 1048.81 99.9689Q1049.64 101.525 1050.39 103.12Q1051.14 104.716 1051.81 106.346Q1052.48 107.976 1053.06 109.638Q1053.65 111.299 1054.16 112.988Q1054.66 114.677 1055.09 116.388Q1055.51 118.1 1055.84 119.83Q1056.18 121.56 1056.43 123.305C1059.76 146.933 1050.43 175.301 1030.36 189.335C1022.62 194.745 1012.23 198.71 1006.63 206.565C1004.54 209.495 1003.27 212.982 1002.53 216.479C999.66 229.968 999.589 272.873 1002.13 286.848C1004.96 302.421 1016.31 307.535 1027.96 315.82C1042.95 326.483 1053.19 341.944 1056.1 360.188C1060.17 385.731 1051.26 413.367 1029.67 428.598C1021.59 434.295 1011.65 438.649 1005.95 447.053C998.383 458.205 1001.39 484.103 1001.45 497.067C1001.5 507.195 1000.61 517.78 1002.38 527.79C1005.12 543.358 1017.92 547.736 1029.38 555.996C1044.25 566.71 1053.5 583.142 1056.3 601.143Q1056.57 602.894 1056.76 604.657Q1056.94 606.42 1057.04 608.189Q1057.14 609.959 1057.15 611.731Q1057.16 613.503 1057.08 615.274Q1057.01 617.044 1056.85 618.809Q1056.68 620.574 1056.43 622.329Q1056.19 624.083 1055.85 625.823Q1055.52 627.564 1055.09 629.285Q1054.67 631.007 1054.17 632.706Q1053.67 634.405 1053.08 636.077Q1052.49 637.75 1051.82 639.391Q1051.15 641.032 1050.41 642.639Q1049.66 644.245 1048.83 645.813Q1048.01 647.381 1047.1 648.906Q1046.2 650.431 1045.22 651.911Q1044.25 653.39 1043.2 654.819C1030.69 671.838 1012.41 680.394 991.906 683.394ZM605.923 148.514C591.236 148.813 574.102 146.788 563.073 158.411C555.267 166.638 551.158 177.779 542.933 185.688C535.732 192.612 525.876 195.721 518.583 202.367C516.401 204.356 513.831 206.86 512.583 209.587C506.732 222.371 508.963 260.421 509.618 275.22C510.066 285.353 510.054 295.383 517.913 302.772C523.922 308.421 531.549 312.388 538.153 317.314C555.186 330.02 564.161 348.814 565.231 369.845C566.174 388.361 560.06 406.463 547.436 420.125C524.305 445.158 507.968 433.862 509.414 478.555C509.621 484.956 510.012 491.292 509.823 497.704C509.353 513.636 506.616 531.992 519.739 544.072C527.836 551.526 538.54 555.588 546.322 563.505C553.937 571.252 556.969 582.369 564.856 589.827C568.24 593.027 572.035 594.59 576.539 595.585C588.871 598.31 602.689 596.629 615.297 596.688C625.528 596.736 635.902 597.391 646.108 596.739C656.596 596.069 665.547 594.114 672.732 585.727C677.591 580.055 681.041 573.257 685.336 567.168C696.459 551.402 714.252 543.134 733.163 541.501C750.995 539.962 769.772 544.061 783.67 555.779C794.481 564.894 799.401 577.277 808.55 587.42C811.948 591.187 815.718 593.773 820.602 595.205C834.91 599.397 851.367 596.976 866.098 596.987C875.57 596.994 885.124 597.677 894.578 596.924C903.611 596.205 911.555 594.298 917.692 587.111C924.175 579.518 927.286 569.542 934.323 562.309C941.999 554.418 952.962 551.281 960.747 543.897C964.603 540.241 967.188 536.056 968.609 530.926C971.438 520.718 971.291 473.79 970.084 462.283C969.158 453.459 966.738 445.822 959.544 440.113C951.728 433.909 941.97 430.23 934.909 423.019C926.187 414.111 922.451 400.64 912.108 393.344L911.23 392.874C907.802 391.079 904.644 389.956 900.789 389.331C885.554 386.861 834.007 385.988 819.635 390.558C804.867 395.254 799.437 414.298 789.111 424.737C768.898 445.173 734.173 449.514 708.789 436.95Q707.195 436.163 705.641 435.298Q704.087 434.432 702.578 433.492Q701.069 432.551 699.608 431.537Q698.148 430.523 696.739 429.438Q695.33 428.353 693.976 427.2Q692.623 426.047 691.327 424.828Q690.032 423.609 688.799 422.328Q687.566 421.047 686.397 419.707Q685.228 418.367 684.127 416.97Q683.026 415.574 681.995 414.125Q680.965 412.676 680.007 411.178Q679.049 409.68 678.166 408.136Q677.283 406.593 676.477 405.007Q675.672 403.422 674.945 401.799Q674.219 400.176 673.573 398.519Q672.928 396.862 672.365 395.175Q671.799 393.513 671.317 391.824Q670.835 390.135 670.439 388.424Q670.043 386.713 669.733 384.985Q669.423 383.256 669.2 381.514Q668.977 379.772 668.842 378.021Q668.707 376.27 668.661 374.515Q668.614 372.759 668.655 371.003Q668.696 369.248 668.826 367.496Q668.955 365.745 669.173 364.002Q669.39 362.259 669.695 360.53Q669.999 358.8 670.39 357.088Q670.781 355.376 671.258 353.686Q671.734 351.996 672.295 350.331Q672.856 348.667 673.5 347.033Q674.144 345.399 674.869 343.8Q675.594 342.2 676.398 340.639Q677.186 339.083 678.05 337.567Q678.913 336.051 679.849 334.579Q680.786 333.107 681.794 331.682Q682.801 330.258 683.877 328.885Q684.953 327.511 686.095 326.192Q687.237 324.873 688.442 323.612Q689.647 322.35 690.912 321.149Q692.177 319.948 693.5 318.81Q694.823 317.673 696.199 316.601Q697.576 315.529 699.003 314.526Q700.431 313.523 701.906 312.591Q703.38 311.659 704.899 310.801Q706.418 309.942 707.977 309.159Q709.536 308.375 711.131 307.669Q712.726 306.963 714.354 306.336Q715.982 305.709 717.639 305.162C735.552 299.395 756.052 300.86 772.804 309.487C785.933 316.248 793.996 325.776 801.921 338.03C804.902 342.64 807.616 347.481 811.98 350.955C815.127 353.46 818.666 354.637 822.551 355.476C838.595 358.945 891.365 360.13 905.917 355.337C921.219 350.297 925.351 332.927 935.504 322.043C944.258 312.659 960.779 309.214 966.805 297.71C973.09 285.711 970.081 262.983 970.193 249.293C970.26 241.207 971.038 232.894 970.323 224.837C969.945 220.583 969.209 216.299 967.808 212.254C962.742 197.617 945.907 193.979 935.518 184.092C925.291 174.36 921.907 157.965 908.338 151.692C904.779 150.047 900.559 149.319 896.668 148.937C888.029 148.091 879.009 148.778 870.315 148.76C858.005 148.734 846.027 147.925 833.698 149.104C827.917 149.657 822.086 150.524 816.685 152.754C804.931 157.606 800.881 172.007 793.004 181.155C773.654 203.627 740.309 210.457 713.024 199.585C682.264 187.328 678.523 157.155 660.641 151.003C645.998 145.965 621.357 147.705 605.923 148.514Z"/>
</svg>